<svg xmlns="http://www.w3.org/2000/svg" width="234" height="81">
  <g transform="translate(-0.01 0)">
    <g>
      <path d="M 18.037 45.222 L 21.205 45.222 C 20.388 50.737 15.447 54.688 9.878 54.279 C 4.309 53.87 0 49.24 0 43.664 C 0 38.088 4.309 33.457 9.878 33.048 C 15.447 32.639 20.388 36.591 21.205 42.106 L 18.037 42.106 C 17.238 38.337 13.717 35.778 9.879 36.179 C 6.041 36.58 3.127 39.811 3.127 43.664 C 3.127 47.517 6.041 50.747 9.879 51.148 C 13.717 51.549 17.238 48.991 18.037 45.222 Z M 69.895 24.065 L 69.895 36.138 C 66.299 32.546 60.664 31.991 56.434 34.811 C 52.205 37.631 50.56 43.042 52.505 47.734 C 54.451 52.426 59.444 55.093 64.433 54.103 C 69.421 53.113 73.014 48.742 73.015 43.664 L 73.015 24.065 Z M 62.358 51.186 C 59.309 51.186 56.561 49.352 55.395 46.539 C 54.229 43.727 54.874 40.49 57.03 38.338 C 59.186 36.186 62.428 35.543 65.245 36.709 C 68.061 37.875 69.896 40.62 69.895 43.664 C 69.895 45.659 69.1 47.573 67.687 48.984 C 66.273 50.395 64.357 51.187 62.358 51.186 Z M 35.956 33.02 C 30.069 33.02 25.296 37.785 25.296 43.664 C 25.296 49.542 30.069 54.308 35.956 54.308 C 41.843 54.308 46.616 49.542 46.616 43.664 C 46.617 40.841 45.494 38.133 43.495 36.136 C 41.495 34.14 38.783 33.019 35.956 33.02 Z M 35.956 51.186 C 32.907 51.186 30.159 49.352 28.993 46.539 C 27.826 43.727 28.472 40.49 30.628 38.338 C 32.784 36.186 36.026 35.543 38.842 36.709 C 41.659 37.875 43.494 40.62 43.492 43.664 C 43.492 45.659 42.698 47.573 41.285 48.984 C 39.871 50.395 37.954 51.187 35.956 51.186 Z M 99.302 45.222 C 99.454 44.189 99.454 43.139 99.302 42.106 C 98.53 36.902 94.066 33.042 88.797 33.024 C 83.528 33.006 79.037 36.836 78.23 42.035 C 77.423 47.234 80.542 52.241 85.569 53.817 C 90.596 55.393 96.022 53.064 98.335 48.337 L 94.65 48.337 C 92.836 50.621 89.863 51.653 87.021 50.986 C 84.179 50.319 81.978 48.073 81.373 45.222 Z M 88.757 36.138 C 92.316 36.138 95.39 38.626 96.127 42.103 L 81.387 42.103 C 82.125 38.626 85.198 36.14 88.757 36.138 Z" fill="rgb(130, 200, 3)"></path>
      <path d="M 88.59 26.259 C 94.064 26.259 102.065 25.934 112.51 25.093 C 118.587 10.887 124.949 0 127.899 0 L 127.992 0 C 128.88 0.325 129.254 1.122 129.254 2.243 C 129.254 7.57 120.085 20.281 116.715 24.906 C 120.834 24.625 148.63 22.137 153.31 22.137 C 153.529 22.119 153.75 22.134 153.965 22.182 C 154.131 22.397 154.229 22.657 154.246 22.929 C 154.246 24.612 150.359 25.872 150.359 25.872 C 150.186 25.962 149.994 26.011 149.798 26.013 C 149.378 26.004 148.993 25.778 148.781 25.416 C 148.569 25.054 148.56 24.608 148.758 24.238 C 148.758 24.238 126.855 25.172 115.998 26.058 C 112.209 31.341 100.228 59.424 100.228 72.46 C 100.228 76.292 101.303 78.861 103.923 79.096 C 104.135 79.092 104.34 79.175 104.49 79.324 C 104.64 79.473 104.724 79.677 104.721 79.889 C 104.729 80.433 104.326 80.897 103.785 80.965 C 103.689 80.973 103.592 80.956 103.504 80.917 C 100.79 79.75 99.666 76.244 99.666 71.339 C 99.666 60.217 105.47 41.76 111.928 26.387 C 104.346 26.432 95.08 26.761 88.247 26.761 C 82.912 26.761 79.074 26.526 78.794 25.827 C 78.742 25.741 78.711 25.645 78.7 25.546 C 78.7 24.937 79.74 24.705 80.34 24.705 L 80.62 24.705 C 81.314 24.705 82.399 24.985 82.399 26.058 C 83.862 26.214 85.983 26.259 88.59 26.259 Z M 126.724 3.832 C 126.917 3.333 127.059 2.816 127.147 2.288 C 127.141 2.253 127.124 2.22 127.098 2.195 C 126.405 2.195 118.067 19.156 117.929 19.578 C 120.272 16.73 125.559 7.103 126.727 3.832 Z" fill="#7D7D7D"></path>
      <path d="M 119.381 45.512 C 121.208 41.635 123.888 39.157 126.12 39.157 C 127.102 39.157 127.992 39.624 128.741 40.607 C 130.475 44.439 137.408 45.138 142.608 45.138 C 144.899 45.138 146.865 45 147.85 44.952 C 148.411 44.907 148.831 44.484 148.924 44.484 C 149.077 44.44 149.234 44.409 149.392 44.391 C 149.673 44.391 149.767 44.533 149.767 44.671 C 149.727 45.076 149.457 45.423 149.073 45.561 C 148.841 45.793 145.284 46.353 141.121 46.353 C 136.018 46.353 129.982 45.512 127.642 42.241 C 127.438 41.916 127.09 41.708 126.706 41.68 C 123.385 41.68 117.253 56.305 117.208 56.354 L 117.208 56.447 C 117.208 57.008 116.552 57.24 115.849 57.24 C 115.006 57.24 114.07 56.915 114.07 56.447 C 114.07 56.354 114.119 56.305 114.119 56.26 L 118.095 39.624 C 118.367 38.86 119.111 38.365 119.922 38.409 C 120.81 38.409 121.7 38.925 121.7 39.766 L 121.7 39.86 Z" fill="hsl(0, 0%, 49%)"></path>
      <path d="M 150.408 50.978 C 150.408 51.961 150.689 52.754 151.344 53.176 C 151.668 53.366 152.045 53.448 152.419 53.408 C 157.896 53.408 178.627 44.484 178.627 44.484 C 178.92 44.243 179.287 44.111 179.667 44.11 C 180.509 44.11 181.116 44.765 181.116 45.232 C 181.128 45.335 181.094 45.438 181.022 45.512 C 180.977 45.512 159.404 54.903 151.59 54.903 C 150.418 54.903 149.531 54.717 149.108 54.211 C 147.798 53.37 147.33 51.788 147.33 50.005 C 147.33 46.734 148.921 42.764 149.756 41.313 C 150.049 40.62 150.736 40.175 151.49 40.192 C 152.471 40.192 153.452 40.884 153.452 41.874 C 153.459 42.016 153.444 42.159 153.407 42.297 C 153.407 42.297 150.408 47.71 150.408 50.978 Z M 156.069 33.037 C 156.076 33.373 156.012 33.707 155.882 34.017 C 155.556 35 154.759 35.654 154.01 35.654 C 153.868 35.662 153.726 35.645 153.59 35.605 C 152.98 35.373 152.606 34.719 152.606 33.923 C 152.601 33.587 152.664 33.254 152.793 32.943 C 153.167 31.96 153.965 31.306 154.714 31.306 C 154.84 31.299 154.967 31.315 155.088 31.355 C 155.695 31.587 156.069 32.241 156.069 33.037 Z" fill="hsl(0, 0%, 49%)"></path>
      <path d="M 182.884 40.559 L 182.509 40.981 C 181.341 46.402 180.637 50.279 180.169 52.989 C 182.509 46.682 186.628 38.797 193.135 38.797 L 193.228 38.797 C 197.347 39.171 198.608 42.117 198.608 45.294 C 198.6 46.17 198.522 47.044 198.376 47.908 C 201.652 46.367 204.738 45.526 208.575 44.965 L 208.669 44.965 C 208.883 44.968 209.087 45.061 209.229 45.221 C 209.372 45.381 209.44 45.594 209.418 45.807 C 209.456 46.148 209.238 46.467 208.904 46.554 C 204.88 47.16 201.652 47.44 198.283 49.123 C 197.485 53.702 195.943 58.33 193.18 62.069 C 190.465 65.652 186.908 68.538 184.381 68.538 C 183.481 68.565 182.638 68.099 182.183 67.323 C 181.947 66.812 181.828 66.253 181.837 65.69 C 181.837 59.94 191.432 51.248 195.783 49.24 C 195.95 48.378 196.029 47.501 196.019 46.623 C 196.019 43.962 195.326 40.784 192.882 40.784 L 192.788 40.784 C 183.944 40.784 179.497 58.632 179.452 58.725 C 179.287 59.045 178.968 59.257 178.609 59.286 C 178.263 59.292 177.974 59.025 177.954 58.68 C 177.876 58.075 177.845 57.465 177.86 56.856 C 177.86 54.474 178.186 49.379 180.287 39.943 C 182.298 30.735 188.382 15.269 195.263 8.401 C 196.151 7.512 197.322 6.999 198.21 6.999 C 198.466 6.995 198.721 7.042 198.959 7.138 C 199.233 7.32 199.469 7.556 199.652 7.83 C 200.002 8.473 200.164 9.201 200.12 9.931 C 200.12 12.597 198.574 16.754 196.234 21.24 C 192.618 28.222 187.331 35.699 182.884 40.559 Z M 182.464 65.98 C 182.458 66.371 182.591 66.751 182.839 67.053 C 183.131 67.49 183.623 67.75 184.149 67.746 C 185.927 67.746 188.406 65.035 190.559 61.996 C 193.415 57.932 194.49 55.128 195.707 50.407 C 192.618 51.577 182.464 61.868 182.464 65.98 Z M 193.741 20.423 C 194.396 19.163 198.595 11.544 198.595 8.834 C 198.602 8.596 198.555 8.359 198.456 8.142 C 198.384 8.103 198.302 8.086 198.22 8.093 C 197.846 8.093 197.284 8.467 196.629 9.17 C 191.155 14.635 185.633 28.139 183.899 35.429 C 188.032 30.046 190.465 26.775 193.741 20.423 Z" fill="#7D7D7D"></path>
      <path d="M 216.812 41.822 C 216.812 45.748 210.496 48.268 209.185 48.783 C 209.185 49.064 209.137 49.389 209.137 49.718 C 209.137 50.84 209.324 52.141 209.886 52.989 C 210.496 53.924 211.525 54.343 212.836 54.343 C 219.294 54.343 232.207 44.626 232.249 44.578 C 232.41 44.455 232.608 44.389 232.811 44.391 C 233.42 44.416 233.909 44.903 233.934 45.512 C 233.914 45.775 233.776 46.016 233.559 46.167 C 233.466 46.215 220.878 55.277 213.203 55.277 C 211.189 55.277 209.504 54.672 208.475 53.083 C 207.664 51.882 207.239 50.463 207.258 49.015 C 207.258 46.402 208.568 43.923 210.114 42.092 C 210.853 41.213 211.74 40.469 212.735 39.894 C 213.298 39.545 213.944 39.351 214.607 39.333 C 214.929 39.324 215.249 39.388 215.543 39.52 C 216.248 39.84 216.717 40.524 216.76 41.296 C 216.767 41.493 216.812 41.635 216.812 41.822 Z M 213.959 41.822 C 213.963 41.783 213.95 41.745 213.922 41.717 C 213.894 41.689 213.856 41.676 213.817 41.68 C 212.881 41.822 211.993 43.55 209.84 46.353 C 212.836 43.785 213.959 42.231 213.959 41.822 Z" fill="#7D7D7D"></path>
    </g></g>
</svg>